<svg width="60" height="60" viewBox="0 0 60 60" fill="none" xmlns="http://www.w3.org/2000/svg">
<path fill-rule="evenodd" clip-rule="evenodd" d="M29.2547 0.398428L28.8558 0.796856V6.96077V13.1247H22.8077C16.2466 13.1247 16.2663 13.1228 15.973 13.7659C15.8698 13.9921 15.8328 15.7562 15.8328 20.4524V26.8316L16.1586 27.1959C16.4022 27.4681 16.5912 27.5631 16.907 27.572C17.4106 27.5863 17.9123 27.2872 18.0672 26.8802C18.1327 26.708 18.1793 24.2761 18.1793 21.027V15.4684H26.1573H34.1353V17.8121V20.1558H31.9081H29.6808L29.3003 20.4954C28.7869 20.9535 28.7624 21.639 29.2421 22.1186L29.5645 22.4409L31.8499 22.4771L34.1353 22.5134V24.6157V26.7181H31.9081H29.6808L29.3003 27.0577C28.7869 27.5158 28.7624 28.2013 29.2421 28.681L29.5645 29.0032L31.8499 29.0394L34.1353 29.0758V31.1781V33.2805H31.9081H29.6808L29.3003 33.6201C28.7869 34.0781 28.7624 34.7637 29.2421 35.2433L29.5645 35.5656L31.8499 35.6018L34.1353 35.6381V37.7404V39.8428H31.9081H29.6808L29.3003 40.1824C28.7869 40.6405 28.7624 41.326 29.2421 41.8057L29.5645 42.1279L31.8499 42.1641L34.1353 42.2005V44.3027V46.4052H31.9081H29.6808L29.3003 46.7448C28.7869 47.2028 28.7624 47.8884 29.2421 48.368L29.5645 48.6903L31.8499 48.7265L34.1353 48.7628V50.8651V52.9675H31.9081H29.6808L29.3003 53.3071C28.7869 53.7652 28.7624 54.4507 29.2421 54.9304L29.5645 55.2526L31.8499 55.2888L34.1353 55.3251V56.49V57.6549H31.1453H28.1553L28.1243 46.6299L28.0932 35.6049L27.7082 35.2614L27.3233 34.9179L15.1743 34.9487L3.02526 34.9796L2.68291 35.3624L2.34056 35.7451V46.6868V57.6284L1.50556 57.6755C0.740141 57.7188 0.642293 57.7543 0.332323 58.1008C-0.1121 58.5976 -0.110809 59.0574 0.33643 59.5573L0.678781 59.94L29.9581 59.97L59.2374 60L59.6187 59.6597C59.9343 59.378 60 59.2347 60 58.8267C60 58.4189 59.9343 58.2755 59.6194 57.9945C59.2826 57.6938 59.1518 57.6549 58.4782 57.6549H57.7175V42.644C57.7175 28.8492 57.7016 27.6064 57.5221 27.3029C57.4147 27.1211 57.201 26.9152 57.0473 26.8453C56.8702 26.7648 55.6954 26.7181 53.8403 26.7181H50.9127V19.0367C50.9127 12.656 50.8846 11.3016 50.7474 11.0388C50.577 10.713 50.738 10.8006 35.4873 2.73029C32.213 0.997711 30.2044 0 29.9906 0C29.7637 0 29.5232 0.130192 29.2547 0.398428ZM40.0015 7.76947L48.5075 12.2805L48.5378 19.4993L48.568 26.7181H44.9356C42.5736 26.7181 41.2054 26.7627 41.0237 26.8453C40.87 26.9152 40.6563 27.1211 40.5489 27.3029C40.3694 27.6064 40.3535 28.8492 40.3535 42.644V57.6549H38.4186H36.4837L36.4534 35.744L36.4232 13.8331L36.0982 13.5082L35.7731 13.1833L33.4877 13.1471L31.2023 13.1107V8.12489C31.2023 4.18232 31.233 3.15145 31.3489 3.19867C31.4296 3.23149 35.3233 5.28831 40.0015 7.76947ZM39.9297 13.3567C39.7935 13.4117 39.5691 13.6001 39.4311 13.7753C39.2073 14.0595 39.1805 14.2404 39.182 15.4549C39.184 17.0186 39.2818 17.3072 39.9145 17.6166C40.3401 17.8249 40.3669 17.8249 40.7925 17.6166C41.4551 17.2926 41.538 17.0294 41.5007 15.3707L41.4681 13.9252L41.0849 13.5836C40.6969 13.2375 40.3796 13.1752 39.9297 13.3567ZM44.6227 13.3567C44.4865 13.4117 44.2621 13.6001 44.1241 13.7753C43.9002 14.0595 43.8735 14.2404 43.875 15.4549C43.877 17.0186 43.9747 17.3072 44.6075 17.6166C45.0331 17.8249 45.0599 17.8249 45.4855 17.6166C46.148 17.2926 46.231 17.0294 46.1937 15.3707L46.1611 13.9252L45.7779 13.5836C45.3899 13.2375 45.0725 13.1752 44.6227 13.3567ZM39.8162 20.29C39.3059 20.5372 39.1803 20.9726 39.1803 22.4941C39.1803 24.376 39.4136 24.8432 40.3535 24.8432C41.2934 24.8432 41.5268 24.376 41.5268 22.4941C41.5268 21.3766 41.4848 20.9999 41.3314 20.7405C41.0169 20.2087 40.3765 20.0183 39.8162 20.29ZM44.5091 20.29C43.9989 20.5372 43.8732 20.9726 43.8732 22.4941C43.8732 24.376 44.1066 24.8432 45.0465 24.8432C45.9864 24.8432 46.2197 24.376 46.2197 22.4941C46.2197 21.3766 46.1777 20.9999 46.0244 20.7405C45.7098 20.2087 45.0695 20.0183 44.5091 20.29ZM55.371 31.1711V33.2805H52.0914C49.9832 33.2805 48.712 33.3259 48.5324 33.4076C47.8244 33.7299 47.6921 34.7276 48.2839 35.2832L48.5847 35.5656L51.9779 35.5999L55.371 35.6344V37.7385V39.8428H52.0914C49.9832 39.8428 48.712 39.8883 48.5324 39.97C47.8244 40.2922 47.6921 41.2899 48.2839 41.8455L48.5847 42.1279L51.9779 42.1623L55.371 42.1967V44.3009V46.4052H52.0914C49.9832 46.4052 48.712 46.4506 48.5324 46.5323C47.8244 46.8546 47.6921 47.8523 48.2839 48.4078L48.5847 48.6903L51.9779 48.7246L55.371 48.7591V50.8632V52.9675H53.4879C51.4982 52.9675 51.0585 53.0623 50.7989 53.547C50.6153 53.8896 50.659 54.5196 50.8859 54.7995C51.2564 55.2564 51.5353 55.3112 53.4861 55.3112H55.371V56.4831V57.6549H49.0355H42.7V43.3584V29.0618H49.0355H55.371V31.1711ZM16.2207 30.2821C15.9473 30.5169 15.8915 30.6579 15.8915 31.1126C15.8915 31.5672 15.9473 31.7082 16.2207 31.943C16.8361 32.4717 17.754 32.2653 18.059 31.5296C18.5147 30.431 17.1362 29.4955 16.2207 30.2821ZM25.8053 47.4598V57.6549H15.2462H4.68704V47.4598V37.2648H15.2462H25.8053V47.4598ZM7.76996 39.8396C7.56194 39.9663 7.35076 40.2165 7.30066 40.3958C7.25057 40.5751 7.2095 41.7764 7.2095 43.0654C7.2095 46.3806 7.11259 46.288 10.5823 46.288C13.0113 46.288 13.4474 46.1965 13.7047 45.6323C13.7915 45.4421 13.8374 44.4687 13.8357 42.8548C13.8321 39.4499 13.9933 39.6082 10.5316 39.6089C8.36913 39.6093 8.11301 39.6307 7.76996 39.8396ZM17.5209 39.7233C17.3847 39.7782 17.1574 39.9702 17.0161 40.1496C16.7667 40.4662 16.7601 40.5523 16.7945 43.028L16.8301 45.5801L17.1552 45.9047L17.4802 46.2294L19.8664 46.2671C23.5158 46.3249 23.459 46.3777 23.4586 42.9227C23.4585 40.5121 23.3577 40.0591 22.7549 39.7583C22.4139 39.5881 17.9302 39.5581 17.5209 39.7233ZM11.4918 42.9482V43.9443H10.5532H9.61464V42.9482V41.9521H10.5532H11.4918V42.9482ZM21.1124 42.9482V43.9443H20.1151H19.1179V42.9482V41.9521H20.1151H21.1124V42.9482ZM7.91344 48.7941C7.27473 49.0723 7.2095 49.36 7.2095 51.9011C7.2095 53.1644 7.25057 54.3445 7.30066 54.5238C7.35076 54.7031 7.56194 54.9533 7.76996 55.08C8.11184 55.2882 8.36866 55.3104 10.4478 55.3107C11.7862 55.311 12.8985 55.2586 13.1091 55.1852C13.7949 54.9465 13.8383 54.759 13.8383 52.0396C13.8383 50.45 13.791 49.4766 13.7047 49.2873C13.4457 48.7196 13.0159 48.6312 10.5355 48.6362C8.9324 48.6395 8.16205 48.6859 7.91344 48.7941ZM17.534 48.7424C17.405 48.7953 17.1938 48.9555 17.0647 49.0987C16.8478 49.3392 16.8274 49.5517 16.7944 51.916L16.7589 54.4732L17.1073 54.8629L17.4556 55.2526L19.9586 55.2837C22.7444 55.3181 22.9134 55.2834 23.2533 54.6065C23.4268 54.261 23.4585 53.8582 23.4586 51.997C23.459 48.576 23.5117 48.6277 20.0309 48.6391C18.7867 48.6432 17.6631 48.6897 17.534 48.7424ZM11.4918 51.9714V52.9675H10.5532H9.61464V51.9714V50.9754H10.5532H11.4918V51.9714ZM21.1124 51.9714V52.9675H20.1151H19.1179V51.9714V50.9754H20.1151H21.1124V51.9714ZM45.9851 53.1167C45.5435 53.3359 45.243 54.0238 45.404 54.4467C45.5916 54.9397 45.8511 55.1803 46.2821 55.261C47.5838 55.5049 48.1485 53.7052 46.9607 53.0984C46.6307 52.9299 46.3505 52.9352 45.9851 53.1167Z" fill="#1C265B"/>
</svg>
