<svg width="60" height="60" viewBox="0 0 60 60" fill="none" xmlns="http://www.w3.org/2000/svg">
<path fill-rule="evenodd" clip-rule="evenodd" d="M27.0229 0.0852206C21.1974 0.679231 15.3532 3.1603 10.7193 7.00663C3.296 13.1683 -0.766224 23.0132 0.120268 32.6936C1.27379 45.2897 10.3329 55.9774 22.4754 59.0676C25.3152 59.7903 27.103 60.0088 30.1014 59.9997C33.7226 59.9887 36.6202 59.5022 39.9394 58.3475C42.3062 57.5241 46.4822 55.3134 47.3934 54.4014C48.2825 53.5117 47.6562 52.0251 46.3925 52.0251C46.0761 52.0251 45.6081 52.2454 44.7859 52.782C38.8287 56.6684 31.574 58.026 24.4128 56.5944C20.4734 55.8068 16.0714 53.7033 12.8377 51.0632C2.49223 42.6164 -0.164567 27.732 6.61509 16.2023C12.8824 5.54411 25.67 0.463276 37.597 3.89243C47.8871 6.85096 55.5314 15.7611 56.9395 26.4375C57.1717 28.1977 57.2009 31.5331 56.9985 33.166C56.491 37.2604 55.0374 41.3098 52.8675 44.6742C52.2553 45.6234 52.0529 46.057 52.0529 46.4193C52.0529 47.3685 52.9129 48.0095 53.8419 47.7527C54.2369 47.6437 54.4514 47.4362 54.9785 46.6534C57.4368 43.0023 59.0352 38.8258 59.7575 34.1673C60.0792 32.0922 60.0811 27.9998 59.7615 25.8613C57.7703 12.5426 47.6659 2.3277 34.4516 0.274784C32.7873 0.0160932 28.7178 -0.0877309 27.0229 0.0852206ZM27.6921 5.77641C27.5081 5.80816 26.9057 5.89899 26.3536 5.9783C23.8807 6.33371 20.8073 7.33338 20.3333 7.93636C19.9467 8.42815 19.976 9.19284 20.4009 9.69816C20.9258 10.3226 21.2755 10.327 23.0767 9.73179C27.5168 8.26445 31.6956 8.15486 36.0345 9.39205C41.4608 10.9392 46.2613 14.876 49.0115 20.0337C52.5052 26.5858 52.2138 34.9504 48.2718 41.2675C41.7579 51.706 28.2179 54.5976 17.9677 47.7392C16.3135 46.6324 13.9691 44.3944 12.8021 42.8081C9.14995 37.8442 7.80154 31.7158 9.0323 25.6753C9.14661 25.1144 9.47842 23.9332 9.76968 23.0504C10.3644 21.2476 10.36 20.8977 9.73608 20.3723C9.2312 19.947 8.46718 19.9177 7.97581 20.3046C7.40334 20.7553 6.56356 23.2425 6.05426 25.9953C5.76943 27.5349 5.67265 30.9412 5.86593 32.6273C6.6614 39.5668 10.2842 45.755 15.9251 49.8091C17.4057 50.8734 20.6947 52.5457 22.405 53.1039C27.318 54.7076 32.6465 54.7086 37.5661 53.1066C49.3422 49.2722 56.3831 36.9974 53.7707 24.8565C53.3397 22.8533 52.7897 21.3307 51.714 19.1629C50.5113 16.7395 49.3707 15.112 47.5128 13.1694C43.9582 9.45233 39.2884 6.94032 34.2508 6.03524C33.0431 5.81821 28.4923 5.63869 27.6921 5.77641ZM38.9356 18.6776C37.9564 18.9995 37.1733 19.7035 31.7798 25.1108L26.0294 30.8758L24.2619 29.1365C22.0841 26.9936 21.4892 26.6607 19.8619 26.6737C19.0388 26.6804 18.6474 26.7518 18.1705 26.9827C17.2257 27.4401 16.5048 28.1315 16.0888 28.9795C15.7715 29.626 15.7125 29.9145 15.7125 30.8181C15.7125 32.7059 15.7407 32.7477 19.7616 36.7998C23.9798 41.0506 24.0981 41.1335 25.9521 41.1335C27.0267 41.1335 27.3199 41.0842 27.8452 40.8155C28.2882 40.5888 30.6786 38.2782 36.1606 32.7775C44.7689 24.1397 44.3645 24.6367 44.3478 22.7131C44.3374 21.5281 44.0423 20.7557 43.2758 19.9065C42.4944 19.0408 41.6257 18.6564 40.341 18.6079C39.752 18.5858 39.1196 18.6172 38.9356 18.6776ZM40.9825 21.6435C41.4522 22.0132 41.6858 22.7486 41.4865 23.2302C41.4028 23.4322 38.0077 26.9253 33.9416 30.9924C27.1812 37.7546 26.5112 38.3872 26.1099 38.3872C25.8685 38.3872 25.5085 38.3008 25.3096 38.1952C24.8752 37.9644 18.8156 31.8804 18.6045 31.4633C18.1145 30.4945 19.1294 29.2174 20.182 29.4785C20.3858 29.529 21.5078 30.5322 22.877 31.8879C24.8003 33.7925 25.31 34.2271 25.7071 34.3018C26 34.3568 26.3163 34.3292 26.5069 34.232C26.6802 34.1435 29.6846 31.2142 33.1832 27.7224C39.4991 21.4185 39.5483 21.3734 40.0919 21.3734C40.4383 21.3734 40.7656 21.4727 40.9825 21.6435ZM49.5245 49.0237C48.6137 49.5289 48.6439 51.0663 49.5729 51.4899C50.2062 51.7787 50.7029 51.6883 51.1963 51.1945C52.3699 50.0198 50.9806 48.2158 49.5245 49.0237Z" fill="#1C265B"/>
</svg>
