<svg width="50" height="60" viewBox="0 0 50 60" fill="none" xmlns="http://www.w3.org/2000/svg">
<path fill-rule="evenodd" clip-rule="evenodd" d="M19.5505 0.190133C18.8264 0.453504 18.2337 0.906019 17.7908 1.53396C17.4346 2.03877 17.1145 2.97371 17.1145 3.50901C17.1145 4.10083 16.8851 4.19968 15.5118 4.19968C14.5355 4.19968 14.1329 4.25163 13.6391 4.44136C12.8385 4.74894 12.046 5.53166 11.6838 6.37232L11.4075 7.01398L6.69548 7.01656C2.38362 7.0189 1.94453 7.03731 1.52657 7.23279C0.942797 7.50577 0.262639 8.279 0.100822 8.85359C0.0104916 9.17465 -0.0155451 16.1968 0.00843627 33.769L0.0420101 58.2374L0.388141 58.7431C0.578508 59.0212 0.985621 59.4083 1.2927 59.6033L1.85123 59.9579L21.445 59.9913C35.9755 60.0161 41.1629 59.9897 41.5193 59.8894C42.173 59.7055 42.8984 59.0384 43.2229 58.3228L43.4917 57.7299L43.4892 46.1209C43.4866 33.6614 43.5141 34.2374 42.9088 34.0011C42.5704 33.8689 41.967 34.0924 41.8553 34.3913C41.8144 34.5005 41.7811 39.7608 41.7811 46.081V57.5721L41.4473 57.9148L41.1135 58.2576H21.7996C1.19414 58.2576 1.97571 58.2783 1.76878 57.7246C1.72984 57.6203 1.69787 46.693 1.69787 33.4417V9.34855L1.97822 9.06079C2.22626 8.80598 2.35759 8.77291 3.12019 8.77291H3.98181L3.9825 31.0234C3.98284 45.9673 4.02178 53.4171 4.10103 53.71C4.24344 54.2367 4.68081 54.7937 5.16592 55.0664C5.48887 55.2479 6.12164 55.2707 11.7114 55.3014L17.8992 55.3355L18.0277 55.7353C18.1911 56.244 18.8035 56.7985 19.4064 56.984C20.1243 57.2048 20.7428 56.981 21.8102 56.114L22.7082 55.3847L30.2747 55.326L37.8413 55.2674L38.3 54.9974C38.5524 54.8488 38.8864 54.536 39.0423 54.3025L39.3258 53.8776L39.357 46.785L39.3882 39.6924L39.1373 39.4181C38.8316 39.0839 38.363 39.0634 37.9967 39.3679L37.7271 39.592L37.6959 46.4597C37.6656 53.1033 37.6574 53.3312 37.4445 53.4482C37.2992 53.5281 35.1398 53.5589 31.0833 53.5388L24.9421 53.5085L25.8044 52.785C26.5322 52.1743 28.4474 49.7808 38.0781 37.4462C44.3543 29.4079 49.5883 22.6362 49.7092 22.398C49.8547 22.1111 49.9464 21.6374 49.9805 20.9949C50.0288 20.0885 50.0085 19.9756 49.6699 19.2695C49.0448 17.9655 47.9884 17.2893 46.5773 17.2899C45.6654 17.2904 45.0997 17.4727 44.4629 17.9716C44.2666 18.1252 38.9708 24.8281 32.6944 32.8669L21.2827 47.4829L19.7981 50.4958L18.3135 53.5085L12.1846 53.5388C6.72528 53.5658 6.03599 53.5489 5.8752 53.3838C5.71201 53.2163 5.69477 51.0745 5.69477 30.9858V8.77291H8.53599H11.3772L11.4267 9.47473C11.4659 10.0335 11.546 10.2664 11.8196 10.618C12.5242 11.5237 11.8958 11.4696 21.7239 11.4697L30.5016 11.4699L30.9565 11.2074C31.522 10.8809 31.9461 10.1606 32.0371 9.37118L32.1062 8.77291H34.888H37.67V15.5832V22.3934L38.0154 22.7481C38.2923 23.0325 38.4226 23.0878 38.672 23.0272C38.8432 22.9857 39.0732 22.8425 39.1831 22.7092C39.3684 22.4842 39.3829 21.97 39.3829 15.6197V8.77291L40.2679 8.77666C41.8143 8.78311 41.7811 8.68145 41.7811 13.4024V17.2265L42.0614 17.5142C42.4186 17.8811 42.8565 17.8811 43.2137 17.5142L43.494 17.2265L43.489 13.2635C43.4836 8.99817 43.4604 8.80058 42.8722 8.00871C42.704 7.78216 42.3142 7.46567 42.0061 7.30537L41.446 7.01398H36.7184H31.9906L31.7589 6.44162C31.4533 5.68633 30.7971 4.95696 30.083 4.57867C29.5767 4.31038 29.3227 4.26418 28.0394 4.20672C26.4072 4.13355 26.2502 4.05428 26.2502 3.30216C26.2502 2.2122 25.3514 0.885381 24.23 0.319942C23.7364 0.0712288 23.5015 0.0396853 21.9108 0.00931434C20.4287 -0.0189459 20.0447 0.010487 19.5505 0.190133ZM23.7015 2.04112C24.2149 2.4323 24.4981 2.95928 24.5801 3.67634C24.6664 4.43069 24.7805 4.70344 25.2079 5.17753C25.7445 5.77287 26.0785 5.87642 27.6983 5.94947C29.4236 6.02722 29.6655 6.13451 30.1044 7.01632C30.3088 7.42721 30.3613 7.72846 30.3613 8.49019C30.3613 9.1546 30.3138 9.48833 30.206 9.58014C30.093 9.67642 27.7513 9.70432 21.6127 9.6824L13.1747 9.65238L13.1424 8.47354C13.1132 7.40833 13.1353 7.25659 13.3708 6.90129C13.8889 6.1195 14.1254 6.02405 15.7234 5.95182C16.9137 5.89811 17.258 5.8403 17.6568 5.62712C18.3037 5.28119 18.7161 4.61995 18.818 3.76511C18.9142 2.95705 19.1652 2.42503 19.5966 2.11488C20.0947 1.75676 20.1672 1.7455 21.8172 1.7713C23.2018 1.79299 23.4161 1.82371 23.7015 2.04112ZM15.7761 16.1638C15.5044 16.275 15.0748 16.8441 13.6315 19.0046C13.129 19.7568 12.6767 20.3744 12.6264 20.3771C12.5761 20.3797 12.1017 19.9861 11.5723 19.5024C10.5299 18.5501 10.2689 18.4583 9.76418 18.866C9.54515 19.0429 9.46327 19.2169 9.46327 19.5052C9.46327 19.8597 9.59026 20.0192 10.6708 21.0211C11.335 21.6368 12.0061 22.1736 12.1623 22.2139C12.684 22.3484 13.363 22.1776 13.7012 21.827C14.3573 21.147 16.8861 17.2896 16.8861 16.9688C16.8861 16.3784 16.2967 15.951 15.7761 16.1638ZM20.6906 16.6303C20.1812 16.841 20.0324 17.6323 20.4262 18.0366C20.6492 18.2656 20.8068 18.2712 27.089 18.2712C34.1946 18.2712 33.773 18.316 33.9613 17.5412C34.0242 17.2826 33.9732 17.1541 33.6935 16.8669L33.3481 16.5122L27.1441 16.5196C23.7319 16.5237 20.8278 16.5736 20.6906 16.6303ZM47.5591 19.3336C48.218 19.7517 48.5036 20.9084 48.1306 21.6483C47.918 22.0702 45.4328 25.2544 45.3382 25.2261C45.2974 25.2139 44.6632 24.7145 43.9286 24.1162C43.12 23.4577 42.6287 22.9806 42.6834 22.9071C44.2901 20.7453 45.4983 19.3242 45.867 19.1625C46.3787 18.9379 47.0413 19.005 47.5591 19.3336ZM20.4262 20.7337C20.1184 21.0497 20.1245 21.6845 20.4381 21.9761C20.6675 22.1892 20.9681 22.201 27.0105 22.2317L33.3425 22.2638L33.6906 21.9062C33.9729 21.6164 34.0242 21.488 33.9613 21.2291C33.773 20.4543 34.1946 20.4991 27.089 20.4991C20.8068 20.4991 20.6492 20.5047 20.4262 20.7337ZM43.067 25.655C43.7922 26.2489 44.2442 26.6968 44.1911 26.769C44.0585 26.9494 26.1173 49.9768 26.0324 50.0754C25.9536 50.1671 23.3424 48.0738 23.2936 47.8799C23.2774 47.8154 27.3662 42.5061 32.3798 36.0815C40.0813 26.2125 41.5234 24.4206 41.675 24.5312C41.7736 24.6031 42.4001 25.1088 43.067 25.655ZM15.6588 29.0195C15.5805 29.052 14.8691 30.0265 14.078 31.185C12.8162 33.033 12.6172 33.2728 12.4566 33.1395C12.3559 33.0559 11.911 32.6582 11.4679 32.2556C10.5743 31.4437 10.1204 31.3161 9.69167 31.7563C9.31265 32.1455 9.39304 32.6622 9.9115 33.1686C11.7512 34.9656 12.3567 35.3169 13.1505 35.0479C13.6549 34.8769 13.7283 34.7877 15.4406 32.2648C17.0262 29.9283 17.1369 29.6307 16.5852 29.1851C16.2972 28.9523 15.9643 28.8929 15.6588 29.0195ZM20.4262 29.4111C19.9317 29.9188 20.2616 30.7337 21.0193 30.876C21.2269 30.9151 24.1121 30.9313 27.4307 30.9119L33.4645 30.8769L33.7401 30.5478C34.0777 30.1448 34.0871 29.8877 33.7789 29.4855L33.5423 29.1765H27.0984C20.8068 29.1765 20.6492 29.1821 20.4262 29.4111ZM20.4478 33.2853C20.0854 33.6319 20.11 34.2481 20.4987 34.5621C20.7867 34.7947 20.9354 34.8051 23.9764 34.8051C26.0941 34.8051 27.2474 34.7609 27.4362 34.6726C28.0156 34.4016 28.0671 33.4716 27.5194 33.1706C27.3749 33.0911 26.1014 33.0462 23.9953 33.0462C20.8344 33.0462 20.6873 33.0562 20.4478 33.2853ZM15.6588 41.6839C15.5805 41.7163 14.8691 42.6908 14.078 43.8493C12.8162 45.6973 12.6172 45.9371 12.4566 45.8039C12.3559 45.7203 11.911 45.3225 11.4679 44.9199C10.5743 44.108 10.1204 43.9804 9.69167 44.4206C9.27336 44.8502 9.38767 45.3322 10.0628 45.9861C12.0046 47.8668 12.5966 48.1274 13.5401 47.517C13.6784 47.4276 14.4877 46.3291 15.3387 45.076C17.0318 42.5831 17.1417 42.2988 16.5852 41.8494C16.2972 41.6167 15.9643 41.5572 15.6588 41.6839ZM23.5165 50.4068C24.1407 50.9259 24.6489 51.3877 24.6458 51.4328C24.634 51.6009 20.0881 55.2674 19.8914 55.2674C19.779 55.2674 19.6686 55.1689 19.646 55.0485C19.6009 54.8077 22.124 49.4629 22.2827 49.4629C22.3371 49.4629 22.8922 49.8876 23.5165 50.4068Z" fill="#1C265B"/>
</svg>
