<svg width="18" height="14" viewBox="0 0 18 14" fill="none" xmlns="http://www.w3.org/2000/svg">
<path d="M0.75 4.30225V11.125C0.75 11.8543 1.03973 12.5538 1.55546 13.0695C2.07118 13.5853 2.77065 13.875 3.5 13.875H14.5C15.2293 13.875 15.9288 13.5853 16.4445 13.0695C16.9603 12.5538 17.25 11.8543 17.25 11.125V2.875C17.25 2.14565 16.9603 1.44618 16.4445 0.930456C15.9288 0.414731 15.2293 0.125 14.5 0.125H3.5C2.77065 0.125 2.07118 0.414731 1.55546 0.930456C1.03973 1.44618 0.75 2.14565 0.75 2.875V4.30225ZM3.5 1.5H14.5C14.8647 1.5 15.2144 1.64487 15.4723 1.90273C15.7301 2.16059 15.875 2.51033 15.875 2.875V3.8925L9 7.594L2.125 3.8925V2.875C2.125 2.51033 2.26987 2.16059 2.52773 1.90273C2.78559 1.64487 3.13533 1.5 3.5 1.5ZM2.125 5.4545L8.67413 8.98C8.77428 9.03392 8.88625 9.06214 9 9.06214C9.11375 9.06214 9.22572 9.03392 9.32588 8.98L15.875 5.4545V11.125C15.875 11.4897 15.7301 11.8394 15.4723 12.0973C15.2144 12.3551 14.8647 12.5 14.5 12.5H3.5C3.13533 12.5 2.78559 12.3551 2.52773 12.0973C2.26987 11.8394 2.125 11.4897 2.125 11.125V5.4545Z" fill="white"/>
</svg>
