<svg width="22" height="22" viewBox="0 0 22 22" fill="none" xmlns="http://www.w3.org/2000/svg">
<path d="M4.31338 0.00537109C1.94361 0.00537109 0.00408936 1.94485 0.00408936 4.31467V17.6872C0.00408936 20.0569 1.94357 21.9958 4.31338 21.9958H17.6859C20.0557 21.9958 21.9945 20.057 21.9945 17.6872V4.31467C21.9945 1.94489 20.0557 0.00537109 17.6859 0.00537109H4.31338ZM5.39724 3.63423C6.53349 3.63423 7.23338 4.38016 7.25498 5.36068C7.25498 6.31955 6.53345 7.08645 5.37526 7.08645H5.35394C4.23931 7.08645 3.51888 6.31959 3.51888 5.36068C3.51888 4.38018 4.26111 3.63423 5.39721 3.63423H5.39724ZM15.189 8.21705C17.3742 8.21705 19.0124 9.64533 19.0124 12.7146V18.4445H15.6914V13.0988C15.6914 11.7555 15.2108 10.839 14.0089 10.839C13.0914 10.839 12.5446 11.4567 12.3045 12.0535C12.2168 12.2669 12.1952 12.5651 12.1952 12.8638V18.4445H8.87423C8.87423 18.4445 8.91781 9.38903 8.87423 8.45139H12.1959V9.86652C12.6372 9.18562 13.4266 8.21703 15.189 8.21703V8.21705ZM3.71476 8.45212H7.03573V18.4446H3.71476V8.45212Z" fill="white"/>
</svg>
