<svg width="23" height="19" viewBox="0 0 23 19" fill="none" xmlns="http://www.w3.org/2000/svg">
<path d="M22.9999 2.25375C22.1541 2.6346 21.2455 2.89193 20.2903 3.00825C21.2759 2.40896 22.0132 1.46576 22.3648 0.354625C21.4388 0.913543 20.4253 1.30696 19.3685 1.51777C18.6578 0.746662 17.7164 0.235558 16.6906 0.0638109C15.6647 -0.107936 14.6118 0.0692844 13.6952 0.567957C12.7787 1.06663 12.0497 1.85885 11.6216 2.82163C11.1936 3.78441 11.0902 4.86388 11.3277 5.89244C9.45145 5.79671 7.61594 5.30114 5.94033 4.4379C4.26471 3.57465 2.78644 2.36302 1.60146 0.881644C1.19629 1.59188 0.963309 2.41535 0.963309 3.29235C0.962857 4.08184 1.15418 4.85924 1.5203 5.55558C1.88643 6.25191 2.41603 6.84565 3.06213 7.2841C2.31283 7.25988 1.58006 7.05413 0.924817 6.684V6.74576C0.924741 7.85306 1.30166 8.92628 1.99163 9.78333C2.6816 10.6404 3.64211 11.2284 4.71018 11.4478C4.01509 11.6389 3.28633 11.6671 2.57895 11.5301C2.8803 12.4829 3.4673 13.316 4.25777 13.9129C5.04824 14.5099 6.00261 14.8406 6.98728 14.859C5.31575 16.1924 3.25143 16.9157 1.12639 16.9125C0.749964 16.9126 0.373853 16.8903 0 16.8456C2.15704 18.2549 4.66798 19.0029 7.23241 19C15.9133 19 20.659 11.6938 20.659 5.35719C20.659 5.15132 20.6539 4.9434 20.6448 4.73753C21.5679 4.05917 22.3647 3.21916 22.9979 2.25683L22.9999 2.25375Z" fill="white"/>
</svg>
