<svg width="23" height="24" viewBox="0 0 23 24" fill="none" xmlns="http://www.w3.org/2000/svg">
<path d="M11.4969 7.99838C9.38527 7.99838 7.66201 9.79661 7.66201 12.0001C7.66201 14.2036 9.38527 16.0019 11.4969 16.0019C13.6085 16.0019 15.3318 14.2036 15.3318 12.0001C15.3318 9.79661 13.6085 7.99838 11.4969 7.99838ZM22.9987 12.0001C22.9987 10.343 23.0131 8.70086 22.9239 7.04672C22.8347 5.12541 22.4147 3.42024 21.0683 2.01527C19.7191 0.607309 18.0879 0.17201 16.2467 0.0789464C14.6586 -0.0141174 13.085 0.000892945 11.4998 0.000892945C9.91174 0.000892945 8.33808 -0.0141174 6.75292 0.0789464C4.91171 0.17201 3.27763 0.610311 1.93125 2.01527C0.581988 3.42324 0.164838 5.12541 0.0756548 7.04672C-0.0135288 8.70386 0.000855714 10.346 0.000855714 12.0001C0.000855714 13.6543 -0.0135288 15.2994 0.0756548 16.9535C0.164838 18.8748 0.584864 20.58 1.93125 21.985C3.28051 23.3929 4.91171 23.8282 6.75292 23.9213C8.34096 24.0144 9.91462 23.9994 11.4998 23.9994C13.0878 23.9994 14.6615 24.0144 16.2467 23.9213C18.0879 23.8282 19.7219 23.3899 21.0683 21.985C22.4176 20.577 22.8347 18.8748 22.9239 16.9535C23.016 15.2994 22.9987 13.6573 22.9987 12.0001ZM11.4969 18.1573C8.23164 18.1573 5.59641 15.4075 5.59641 12.0001C5.59641 8.59278 8.23164 5.8429 11.4969 5.8429C14.7622 5.8429 17.3974 8.59278 17.3974 12.0001C17.3974 15.4075 14.7622 18.1573 11.4969 18.1573ZM17.6391 7.02871C16.8767 7.02871 16.261 6.38627 16.261 5.59073C16.261 4.79518 16.8767 4.15274 17.6391 4.15274C18.4014 4.15274 19.0171 4.79518 19.0171 5.59073C19.0173 5.77963 18.9818 5.96673 18.9127 6.1413C18.8435 6.31587 18.742 6.47449 18.614 6.60807C18.486 6.74164 18.334 6.84755 18.1667 6.91974C17.9994 6.99192 17.8201 7.02895 17.6391 7.02871Z" fill="white"/>
</svg>
