<svg width="60" height="60" viewBox="0 0 60 60" fill="none" xmlns="http://www.w3.org/2000/svg">
<path fill-rule="evenodd" clip-rule="evenodd" d="M2.40353 0.21533C-0.0697881 1.09984 -0.782332 4.15101 1.05562 5.98682C2.67072 7.60003 5.37803 7.26568 6.50966 5.31307L6.86153 4.70597L12.7261 4.70257L18.5906 4.69918L17.1831 5.38172C14.6791 6.59602 12.0131 8.40477 11.6652 9.12515C11.3055 9.87049 11.8702 10.7199 12.7256 10.7199C13.0112 10.7199 13.3697 10.5233 14.1728 9.9259C17.2311 7.65147 20.9159 6.02818 24.7029 5.28706C25.4054 5.14964 26.0987 5.01256 26.2439 4.98257C26.4922 4.93114 26.5078 4.96605 26.5078 5.57268C26.5078 6.11944 26.5597 6.27561 26.8498 6.60001L27.1918 6.98263L29.9496 7.01789L32.7072 7.05316L33.0882 6.71318C33.4227 6.41455 33.4755 6.28545 33.5212 5.6541C33.569 4.99429 33.5938 4.93923 33.8231 4.98609C33.9606 5.0142 34.6477 5.14964 35.3501 5.28706C39.1371 6.02818 42.8219 7.65147 45.8803 9.9259C46.6834 10.5233 47.0418 10.7199 47.3274 10.7199C48.1828 10.7199 48.7476 9.87049 48.3879 9.12515C48.04 8.40477 45.3739 6.59602 42.8699 5.38172L41.4624 4.69918L47.327 4.70257L53.1915 4.70597L53.5434 5.31307C54.9402 7.7234 58.566 7.51088 59.7399 4.94989C60.0867 4.1933 60.0867 2.85985 59.7399 2.10327C58.566 -0.457722 54.9402 -0.67024 53.5434 1.74009L53.1915 2.34719L43.3816 2.35117L33.5718 2.35504L33.5246 1.52125C33.4811 0.753654 33.4468 0.660165 33.0923 0.343731L32.7072 0L29.9496 0.0352634L27.1918 0.0705269L26.8498 0.453153C26.5465 0.792432 26.5078 0.92177 26.5078 1.59541V2.35504H16.6844H6.86118L6.57898 1.82386C5.82104 0.396684 3.9316 -0.331195 2.40353 0.21533ZM4.33707 2.76789C4.75346 3.18355 4.7402 3.88285 4.30775 4.31468C3.59955 5.02205 2.40975 4.53399 2.40975 3.53595C2.40975 2.49047 3.58852 2.02068 4.33707 2.76789ZM31.1994 3.52658V4.69812H30.0265H28.8536V3.52658V2.35504H30.0265H31.1994V3.52658ZM57.3527 2.76789C57.769 3.18355 57.7558 3.88285 57.3233 4.31468C56.6151 5.02205 55.4253 4.53399 55.4253 3.53595C55.4253 2.49047 56.6041 2.02068 57.3527 2.76789ZM8.97277 11.8381C8.24416 12.136 8.02752 13.1209 8.57116 13.6641C8.73455 13.8271 9.06179 13.992 9.29849 14.0304C9.67921 14.092 9.77668 14.0524 10.1425 13.687C10.6993 13.1309 10.7036 12.6713 10.1574 12.1257C9.7571 11.7259 9.43724 11.6482 8.97277 11.8381ZM29.4401 11.897C29.2261 12.0139 27.5299 15.0137 23.1711 22.9833C19.8844 28.9926 17.1759 34.0454 17.1522 34.2116C17.1252 34.4008 17.9018 36.6115 19.228 40.1207C20.3934 43.2044 21.347 45.7919 21.347 45.8707C21.347 45.9496 21.2061 46.0889 21.034 46.1802C20.5405 46.4423 19.8408 47.4177 19.6323 48.1344C19.1794 49.6905 19.8885 51.4167 21.2843 52.1563L21.8161 52.4382V55.8047V59.1711L22.1584 59.5538L22.5005 59.9364L29.9536 59.9682L37.4065 60L37.7924 59.6558L38.1783 59.3116L38.2125 55.8579L38.2468 52.4043L38.6005 52.258C39.1273 52.0399 39.9805 51.1565 40.2484 50.5517C40.9184 49.0389 40.4058 47.093 39.1181 46.2598C38.8931 46.1142 38.7083 45.9348 38.7075 45.8612C38.7068 45.7877 39.6596 43.2044 40.825 40.1207C42.1513 36.6115 42.9278 34.4008 42.9009 34.2116C42.8772 34.0454 40.1687 28.9924 36.882 22.9829C32.1915 14.4066 30.8381 12.0211 30.5895 11.8919C30.1957 11.6873 29.8207 11.689 29.4401 11.897ZM50.2461 11.8422C49.8769 11.9912 49.4968 12.5342 49.4968 12.9129C49.4968 13.3818 50.0359 13.9446 50.5657 14.0286C50.9229 14.0853 51.0514 14.0406 51.3841 13.7437C51.7135 13.4497 51.7787 13.3103 51.7787 12.8989C51.7787 12.4912 51.7131 12.3478 51.3983 12.0669C51.013 11.7229 50.6952 11.661 50.2461 11.8422ZM6.19825 15.7718C5.84192 15.9651 4.86864 17.7871 4.16841 19.5713C3.64318 20.9097 3.03479 23.0949 2.75951 24.6318L2.55695 25.7621L1.61956 25.8046C0.733187 25.8448 0.663516 25.868 0.341083 26.2284L0 26.6097V29.3005V31.9913L0.342021 32.374L0.684042 32.7566L3.45598 32.792L6.22781 32.8272L6.63258 32.4229L7.03747 32.0185V29.3005V26.5826L6.63868 26.1842C6.27894 25.8249 6.17479 25.7859 5.5752 25.7859C4.99719 25.7859 4.91837 25.7591 4.97091 25.5809C5.00411 25.4681 5.08961 25.0332 5.16081 24.6144C5.32983 23.6201 5.91065 21.5535 6.28516 20.6134C6.4482 20.2043 6.89496 19.2106 7.27791 18.4052C7.93146 17.031 7.96665 16.9133 7.85053 16.4953C7.76737 16.196 7.60422 15.9752 7.35286 15.8222C6.91196 15.5536 6.62355 15.5411 6.19825 15.7718ZM52.7002 15.8222C52.4488 15.9752 52.2857 16.196 52.2025 16.4953C52.0864 16.9133 52.1216 17.031 52.7751 18.4052C53.1581 19.2106 53.6049 20.2043 53.7679 20.6134C54.1424 21.5535 54.7232 23.6201 54.8922 24.6144C54.9634 25.0332 55.0468 25.4616 55.0776 25.5666C55.1239 25.7245 55.0093 25.7662 54.409 25.8096C53.7748 25.8554 53.6427 25.9086 53.35 26.2358L53.0156 26.6097V29.3005V31.9913L53.3576 32.374L53.6996 32.7566L56.4574 32.7918L59.215 32.8271L59.6046 32.4793L59.9944 32.1314V29.3005V26.4696L59.6113 26.1278C59.2609 25.815 59.1541 25.7859 58.3558 25.7859H57.4833L57.4139 25.3466C56.9889 22.6557 56.1537 19.9756 55.0054 17.6188C54.3621 16.2985 54.122 15.9166 53.8453 15.7737C53.3869 15.5369 53.1522 15.5468 52.7002 15.8222ZM28.8497 24.2922L28.8458 30.9993L28.238 31.3507C25.8248 32.7459 26.0376 36.3675 28.6016 37.54C29.359 37.8864 30.694 37.8864 31.4515 37.54C34.0155 36.3675 34.2282 32.7459 31.8151 31.3507L31.2073 30.9993L31.208 24.2629C31.2087 18.4549 31.2312 17.5669 31.3716 17.8194C31.4611 17.9805 33.3819 21.4863 35.6401 25.6102L39.7457 33.108L38.1604 33.1666L36.575 33.2252L36.2331 33.6078C35.7849 34.1091 35.7849 34.5671 36.233 35.0685L36.575 35.4511L38.2856 35.4891C39.2265 35.5099 39.9962 35.5627 39.9959 35.6062C39.9957 35.6498 39.1585 37.8997 38.1353 40.6059L36.2752 45.5264H30.0265H23.7778L21.9177 40.6059C20.8946 37.8997 20.0574 35.646 20.0571 35.5976C20.0569 35.5492 20.7949 35.5097 21.697 35.5097H23.3372L23.7176 35.1702C24.2307 34.7124 24.2553 34.0269 23.776 33.5474C23.4639 33.2352 23.405 33.2233 21.8807 33.1666L20.3075 33.108L24.5513 25.3475C26.8854 21.0792 28.8082 17.5866 28.8243 17.586C28.8404 17.5856 28.8519 20.6032 28.8497 24.2922ZM4.69164 29.3005V30.4721H3.51873H2.34582V29.3005V28.129H3.51873H4.69164V29.3005ZM57.7072 29.3005V30.4721H56.5343H55.3614V29.3005V28.129H56.5343H57.7072V29.3005ZM30.8449 33.5795C31.2612 33.9951 31.248 34.6944 30.8155 35.1263C30.1073 35.8336 28.9175 35.3456 28.9175 34.3475C28.9175 33.302 30.0963 32.8323 30.8449 33.5795ZM37.8274 48.2859C37.9921 48.4503 38.1583 48.7785 38.1968 49.0149C38.2586 49.3955 38.2188 49.4925 37.8504 49.8605L37.4342 50.2763L29.9797 50.2444L22.5252 50.2126L22.2256 49.9134C22.0609 49.7489 21.8947 49.4207 21.8563 49.1843C21.7944 48.8037 21.8342 48.7067 22.2026 48.3387L22.6189 47.9229L30.0733 47.9548L37.5279 47.9866L37.8274 48.2859ZM35.8911 55.1331V57.6519H30.0265H24.162V55.1331V52.6142H30.0265H35.8911V55.1331Z" fill="#1C265B"/>
</svg>
